<?xml version="1.0" encoding="UTF-8" standalone="no"?>
<!DOCTYPE svg PUBLIC "-//W3C//DTD SVG 1.1//EN" "http://www.w3.org/Graphics/SVG/1.1/DTD/svg11.dtd">
<svg version="1.1" xmlns="http://www.w3.org/2000/svg" xmlns:xlink="http://www.w3.org/1999/xlink" preserveAspectRatio="xMidYMid meet" viewBox="0 0 640 640" width="640" height="640"><defs><path d="M159.4 223.17L164.28 310.18L217.3 361.27L299.65 372.05L359.22 351.3L233.35 228.89L210.83 190.31L182.88 183.03L149.91 194.59L99.39 197.03L159.4 223.17Z" id="a31aelSz92"></path><path d="M369.88 365.11L316.6 383.69L318.49 490.52L363.65 439.4L353.44 388.05L379.6 431.19L456.32 411.44L369.88 365.11Z" id="b8oJeF3fx"></path><path d="M258.85 224.07L287.17 250.65L287.17 250.65L324.58 287.56L324.71 287.56L379.31 340.87L432.24 310.81L343.22 287.62L450.33 288.01L502.32 229.77L326.74 246.81L522.01 195.55L569.58 110.89L258.85 224.07Z" id="bAwYafsOF"></path><path d="" id="c1FQN5BoH5"></path><path d="" id="p3yyrjpFWA"></path><path d="" id="aMfFg3sI0"></path></defs><g><g><g><use xlink:href="#a31aelSz92" opacity="1" fill="#000000" fill-opacity="1"></use><g><use xlink:href="#a31aelSz92" opacity="1" fill-opacity="0" stroke="#000000" stroke-width="1" stroke-opacity="0"></use></g></g><g><use xlink:href="#b8oJeF3fx" opacity="1" fill="#000000" fill-opacity="1"></use><g><use xlink:href="#b8oJeF3fx" opacity="1" fill-opacity="0" stroke="#000000" stroke-width="1" stroke-opacity="0"></use></g></g><g><use xlink:href="#bAwYafsOF" opacity="1" fill="#000000" fill-opacity="1"></use><g><use xlink:href="#bAwYafsOF" opacity="1" fill-opacity="0" stroke="#000000" stroke-width="1" stroke-opacity="0"></use></g></g><g><use xlink:href="#c1FQN5BoH5" opacity="1" fill="#000000" fill-opacity="1"></use><g><use xlink:href="#c1FQN5BoH5" opacity="1" fill-opacity="0" stroke="#000000" stroke-width="1" stroke-opacity="0"></use></g></g><g><use xlink:href="#p3yyrjpFWA" opacity="1" fill="#000000" fill-opacity="1"></use><g><use xlink:href="#p3yyrjpFWA" opacity="1" fill-opacity="0" stroke="#000000" stroke-width="1" stroke-opacity="0"></use></g></g><g><use xlink:href="#aMfFg3sI0" opacity="1" fill="#000000" fill-opacity="1"></use><g><use xlink:href="#aMfFg3sI0" opacity="1" fill-opacity="0" stroke="#000000" stroke-width="1" stroke-opacity="0"></use></g></g></g></g></svg>
